<?xml version="1.0" encoding="UTF-8" ?>
<!DOCTYPE svg PUBLIC "-//W3C//DTD SVG 1.1//EN" "http://www.w3.org/Graphics/SVG/1.1/DTD/svg11.dtd">
<svg width="500pt" height="500pt" viewBox="0 0 500 500" version="1.1" xmlns="http://www.w3.org/2000/svg">
<g id="#e13122ff">
<path fill="#e13122" opacity="1.00" d=" M 176.13 74.16 C 200.66 49.64 225.19 25.11 249.71 0.58 C 274.53 25.33 299.31 50.12 324.08 74.92 C 299.65 99.48 275.00 123.83 250.66 148.48 C 225.63 123.91 201.01 98.89 176.13 74.16 Z" />
<path fill="#e13122" opacity="1.00" d=" M 160.60 89.63 C 161.36 89.07 162.46 87.22 163.44 88.52 C 187.96 113.01 212.47 137.51 236.98 162.01 C 207.97 191.06 178.94 220.09 149.89 249.10 C 150.61 250.03 151.32 250.98 152.15 251.84 C 180.70 280.31 209.14 308.91 237.76 337.31 C 213.32 361.93 188.70 386.36 164.22 410.93 C 153.70 400.40 143.12 389.92 132.66 379.33 C 147.12 364.84 161.61 350.38 176.08 335.90 C 149.15 308.51 121.81 281.52 94.68 254.33 C 92.47 251.95 89.73 249.99 88.09 247.13 C 116.39 219.49 144.04 191.18 172.18 163.37 C 173.23 162.39 174.10 161.23 174.93 160.06 C 160.74 146.04 146.73 131.85 132.57 117.80 C 141.80 108.30 151.34 99.10 160.60 89.63 Z" />
<path fill="#e13122" opacity="1.00" d=" M 264.11 162.11 C 288.67 137.62 313.12 113.01 337.72 88.56 C 347.39 98.31 357.31 107.84 366.76 117.80 C 352.12 132.12 337.78 146.74 323.19 161.11 C 352.46 190.50 381.77 219.84 411.19 249.08 C 409.88 251.70 407.41 253.41 405.47 255.52 C 378.40 282.64 351.19 309.60 324.27 336.85 C 338.85 350.55 352.62 365.13 366.94 379.11 C 357.09 389.25 347.02 399.17 337.01 409.14 C 312.94 385.58 289.57 361.30 265.33 337.92 C 265.73 337.14 266.26 336.43 266.89 335.82 C 295.39 307.53 323.61 278.96 352.16 250.72 C 351.67 249.93 351.13 249.19 350.52 248.50 C 321.70 219.72 292.90 190.92 264.11 162.11 Z" />
<path fill="#e13122" opacity="1.00" d=" M 1.81 248.52 C 40.97 209.53 79.90 170.32 119.04 131.32 C 128.74 140.78 138.11 150.58 147.91 159.94 C 147.58 160.37 146.91 161.22 146.58 161.64 C 117.96 190.10 89.52 218.75 60.89 247.19 C 61.44 247.94 62.03 248.66 62.64 249.37 C 88.81 275.55 115.00 301.72 141.18 327.91 C 143.79 330.50 146.44 333.07 148.87 335.84 C 138.63 345.46 128.90 355.62 118.95 365.54 C 79.79 326.65 40.95 287.43 1.81 248.52 Z" />
<path fill="#e13122" opacity="1.00" d=" M 378.97 133.02 C 379.72 131.84 381.23 131.67 382.01 132.93 C 420.54 171.45 459.08 209.98 497.59 248.53 C 458.50 287.55 419.53 326.68 380.40 365.64 C 370.76 356.00 361.21 346.28 351.43 336.78 C 380.39 307.55 409.63 278.58 438.66 249.41 C 409.93 220.77 381.33 192.00 352.57 163.40 C 351.89 162.64 350.19 161.45 351.54 160.44 C 360.66 151.29 369.81 142.15 378.97 133.02 Z" />
<path fill="#e13122" opacity="1.00" d=" M 243.60 182.65 C 245.99 180.35 248.10 177.74 250.82 175.82 C 275.48 200.64 300.31 225.31 325.02 250.07 C 300.48 274.63 276.03 299.27 251.33 323.66 C 226.63 298.74 201.65 274.11 177.01 249.14 C 199.30 227.07 221.40 204.80 243.60 182.65 Z" />
<path fill="#e13122" opacity="1.00" d=" M 178.06 424.86 C 202.29 400.17 227.09 376.03 251.29 351.31 C 265.08 364.29 278.14 378.05 291.66 391.32 C 302.16 401.88 312.77 412.35 323.26 422.92 C 298.77 447.40 274.32 471.94 249.77 496.36 C 225.71 472.69 202.07 448.58 178.06 424.86 Z" />
</g>
</svg>
